<svg width="1080" height="520" viewBox="0 0 1080 520" fill="none" xmlns="http://www.w3.org/2000/svg">
<path d="M208.667 353.393H272.333C278.522 353.393 284.457 350.931 288.833 346.549C293.208 342.167 295.667 336.223 295.667 330.025V276.611C295.667 270.413 293.208 264.469 288.833 260.087C284.457 255.704 278.522 253.242 272.333 253.242H185.667C182.467 253.242 179.4 253.896 176.6 255.072C166.045 249.472 154.278 246.551 142.333 246.565C135.571 246.559 128.841 247.489 122.333 249.33V153.091C122.333 146.008 125.143 139.215 130.144 134.206C135.145 129.198 141.928 126.384 149 126.384H229V206.505C229 213.588 231.81 220.381 236.811 225.39C241.812 230.398 248.594 233.212 255.667 233.212H335.667V366.747C335.667 373.83 332.857 380.623 327.856 385.632C322.855 390.64 316.072 393.454 309 393.454H242.093C241.379 388.46 239.062 383.834 235.493 380.274L208.667 353.393ZM275.667 313.333V330.025C275.667 330.91 275.316 331.759 274.69 332.385C274.065 333.012 273.217 333.363 272.333 333.363H222.333V313.333H275.667ZM222.333 293.303V273.272H272.333C273.217 273.272 274.065 273.624 274.69 274.25C275.316 274.876 275.667 275.725 275.667 276.611V293.303H222.333ZM249 133.061V206.505C249 208.276 249.702 209.974 250.953 211.226C252.203 212.478 253.899 213.182 255.667 213.182H329L249 133.061ZM191.24 354.822C199.958 342.542 203.751 327.43 201.868 312.481C199.984 297.531 192.562 283.836 181.072 274.11C169.582 264.383 154.862 259.334 139.83 259.964C124.798 260.595 110.552 266.858 99.9132 277.512C89.2749 288.166 83.0214 302.435 82.3921 317.489C81.7629 332.544 86.8038 347.286 96.5159 358.793C106.228 370.301 119.902 377.735 134.829 379.621C149.756 381.507 164.845 377.708 177.107 368.977L211.933 403.87C212.849 404.854 213.953 405.643 215.18 406.19C216.406 406.738 217.73 407.032 219.073 407.056C220.416 407.08 221.75 406.832 222.995 406.328C224.24 405.825 225.371 405.075 226.321 404.124C227.27 403.173 228.019 402.04 228.522 400.793C229.025 399.546 229.272 398.21 229.248 396.866C229.224 395.521 228.93 394.195 228.384 392.966C227.837 391.738 227.049 390.632 226.067 389.715L191.24 354.822ZM182.333 320.01C182.333 325.271 181.299 330.48 179.289 335.34C177.278 340.201 174.332 344.617 170.618 348.337C166.903 352.057 162.494 355.008 157.641 357.021C152.788 359.034 147.586 360.07 142.333 360.07C137.081 360.07 131.879 359.034 127.026 357.021C122.173 355.008 117.763 352.057 114.049 348.337C110.335 344.617 107.388 340.201 105.378 335.34C103.368 330.48 102.333 325.271 102.333 320.01C102.333 309.385 106.548 299.195 114.049 291.683C121.551 284.17 131.725 279.949 142.333 279.949C152.942 279.949 163.116 284.17 170.618 291.683C178.119 299.195 182.333 309.385 182.333 320.01Z" fill="#F6AF09"/>
<path d="M417.368 311V271.4H458.552V311H479.144V214.52H458.552V253.112H417.368V214.52H396.776V311H417.368ZM520.427 232.088V214.52H499.835V232.088H520.427ZM520.427 311V240.44H499.835V311H520.427ZM561.343 311V273.704C561.343 262.04 567.967 254.408 575.023 254.408C579.487 254.408 581.359 257.432 581.359 261.464C581.359 265.496 578.911 270.536 576.319 273.128H596.191C597.919 270.392 600.223 264.344 600.223 256.712C600.223 245.624 594.463 239 584.095 239C570.559 239 563.647 250.808 561.343 262.616V240.44H540.751V311H561.343ZM646.425 312.44C662.265 312.44 671.769 305.528 677.097 297.896L664.569 285.368C661.977 291.416 656.649 295.736 646.713 295.736C637.497 295.736 630.873 290.984 629.577 281.048H677.673C678.105 279.464 678.393 275.432 678.393 272.408C678.393 253.976 667.161 239 644.697 239C623.961 239 610.281 253.976 610.281 275.72C610.281 297.464 623.961 312.44 646.425 312.44ZM644.841 254.84C654.057 254.84 659.097 259.88 659.817 269.24H629.577C630.585 259.736 636.057 254.84 644.841 254.84ZM717.439 311V271.4H758.623V311H779.215V214.52H758.623V253.112H717.439V214.52H696.847V311H717.439ZM820.498 232.088V214.52H799.906V232.088H820.498ZM820.498 311V240.44H799.906V311H820.498ZM885.174 311L909.943 240.44H887.478L877.687 274.28L872.359 299.048L866.886 274.28L857.094 240.44H834.342L859.11 311H885.174ZM952.402 312.44C968.242 312.44 977.746 305.528 983.074 297.896L970.546 285.368C967.954 291.416 962.626 295.736 952.69 295.736C943.474 295.736 936.85 290.984 935.554 281.048H983.65C984.082 279.464 984.37 275.432 984.37 272.408C984.37 253.976 973.138 239 950.674 239C929.938 239 916.258 253.976 916.258 275.72C916.258 297.464 929.938 312.44 952.402 312.44ZM950.818 254.84C960.034 254.84 965.074 259.88 965.794 269.24H935.554C936.562 259.736 942.034 254.84 950.818 254.84Z" fill="#F6AF09"/>
</svg>
